<svg width="70" height="70" viewBox="0 0 70 70" fill="none" xmlns="http://www.w3.org/2000/svg">
<rect width="70" height="70" rx="10" fill="#DBE3F1"/>
<path d="M41.92 47.3848H38.6309C38.1455 47.3848 37.752 47.7783 37.752 48.2637C37.752 48.7492 38.1455 49.1426 38.6309 49.1426H41.92C42.4054 49.1426 42.7989 48.7492 42.7989 48.2637C42.7989 47.7783 42.4054 47.3848 41.92 47.3848Z" fill="#00338D"/>
<path d="M61.2787 37.979L56.4926 36.1329L54.0524 33.6927C53.8957 33.536 53.6938 33.4512 53.4875 33.438V31.4963C54.6376 30.27 55.4563 28.7172 55.7867 26.9678C55.9917 26.977 56.1988 26.9605 56.4031 26.9188C57.5725 26.6794 58.4213 25.5943 58.4213 24.339V23.6981C58.4213 22.9719 58.1268 22.3053 57.6473 21.8287C58.4234 17.6076 57.7841 14.1677 55.7903 11.8653C53.8617 9.63838 50.7546 8.57396 46.8053 8.78759C43.1565 8.98482 40.801 10.6637 40.0548 11.2778C39.6462 11.3264 38.9504 11.4698 38.2461 11.8924C37.2699 12.4781 36.1063 13.7084 36.1063 16.2436C36.1063 18.4551 36.4598 20.3015 36.7157 21.3491C35.8579 21.767 35.284 22.6726 35.284 23.708V24.3389C35.284 25.5942 36.1328 26.6793 37.3022 26.9187C37.5065 26.9605 37.7137 26.9769 37.9187 26.9677C38.249 28.717 39.0678 30.2699 40.2178 31.4962V33.4378C40.0115 33.4511 39.8095 33.5359 39.6529 33.6926L37.2127 36.1328L32.4266 37.9789C32.0126 38.1385 31.6171 38.3456 31.2512 38.5941C30.8498 38.8669 30.7455 39.4135 31.0182 39.815C31.1882 40.0653 31.4646 40.2001 31.7459 40.2001C31.9159 40.2001 32.0877 40.1507 32.239 40.0481C32.4941 39.8747 32.7701 39.7304 33.0592 39.6188L37.501 37.9055L40.8971 42.9998C41.318 43.6313 41.9928 44.0364 42.7481 44.1112C42.8321 44.1195 42.9161 44.1236 42.9996 44.1236C43.4368 44.1236 43.861 44.0087 44.2365 43.7962L43.5077 60.3277C43.4863 60.8126 43.8621 61.2231 44.3471 61.2444C44.3602 61.245 44.3734 61.2453 44.3865 61.2453C44.8541 61.2453 45.2431 60.8767 45.2639 60.405L45.9403 45.0603H47.7649L48.4413 60.405C48.4621 60.8768 48.8511 61.2453 49.3187 61.2453C49.3318 61.2453 49.345 61.245 49.3581 61.2444C49.843 61.2231 50.2188 60.8126 50.1975 60.3277L49.4687 43.7962C49.8442 44.0087 50.2683 44.1236 50.7056 44.1236C50.7891 44.1236 50.8731 44.1195 50.9571 44.1112C51.7124 44.0364 52.387 43.6313 52.8081 42.9998L56.2042 37.9055L60.646 39.6188C61.2689 39.859 61.8052 40.2424 62.2268 40.7206L59.188 43.7594C58.0901 44.8573 57.4855 46.317 57.4855 47.8695V60.3665C57.4855 60.8519 57.879 61.2454 58.3644 61.2454C58.8498 61.2454 59.2434 60.8519 59.2434 60.3665V47.8695C59.2434 46.7866 59.6651 45.7682 60.4309 45.0024L63.0979 42.3355C63.205 42.7284 63.255 43.1415 63.2382 43.5638L62.5574 60.3308C62.5377 60.8159 62.915 61.225 63.3999 61.2448C63.4121 61.2453 63.4241 61.2455 63.4362 61.2455C63.9051 61.2455 64.2946 60.8751 64.3137 60.4023L64.9947 43.6348C65.0944 41.1476 63.6011 38.8748 61.2787 37.979ZM39.6392 26.6053C39.4842 25.7614 38.7028 25.1481 37.8594 25.2105C37.7927 25.2154 37.724 25.2107 37.6549 25.1966C37.3054 25.1251 37.0419 24.7563 37.0419 24.339V23.7078C37.0419 23.3001 37.3143 22.9329 37.662 22.8718C37.9555 22.8203 38.2365 22.928 38.4142 23.1599C38.5756 23.3702 38.7909 23.5207 39.0366 23.5948C39.3966 23.7035 39.7935 23.6396 40.0987 23.4243C40.6483 23.0362 41.1332 22.5622 41.54 22.0152C41.8297 21.6257 41.7486 21.0751 41.3592 20.7855C40.9695 20.4958 40.4191 20.5768 40.1294 20.9664C39.9266 21.2392 39.6973 21.4868 39.445 21.7059C39.1664 21.4676 38.8408 21.2953 38.4919 21.197C38.2661 20.3319 37.8642 18.4786 37.8642 16.2433C37.8642 14.8972 38.2791 13.9514 39.0975 13.4322C39.736 13.0271 40.4118 13.0109 40.4114 13.0108C40.636 13.0108 40.8547 12.9223 41.0178 12.768C41.0393 12.7478 43.1998 10.7428 46.8999 10.5427C50.2869 10.3599 52.9016 11.2149 54.4613 13.0159C56.0332 14.8311 56.5567 17.6179 55.9888 21.106C55.7534 21.0977 55.4957 21.1155 55.2392 21.1583L54.4135 19.1753C54.2449 18.7707 53.8036 18.5523 53.3796 18.6628C53.2979 18.6841 45.1814 20.7417 41.7781 16.5047C41.4743 16.1263 40.9211 16.0658 40.5425 16.3698C40.1641 16.6738 40.1036 17.2269 40.4077 17.6054C43.8831 21.9322 50.7789 20.991 53.0743 20.5319L53.7129 22.0653C53.9875 22.7245 54.6899 23.0845 55.3822 22.9213C55.6664 22.8544 55.9379 22.8528 56.0399 22.873C56.3953 22.9438 56.6633 23.2983 56.6633 23.6979V24.3389C56.6633 24.7563 56.3998 25.125 56.0503 25.1965C55.9813 25.2107 55.9123 25.2154 55.8458 25.2104C55.0026 25.149 54.2211 25.7612 54.066 26.6053C53.4266 30.0863 50.393 32.6128 46.8526 32.6128C43.3122 32.6128 40.2786 30.0863 39.6392 26.6053ZM43.5382 42.1416C43.3153 42.3645 43.0562 42.3754 42.9214 42.3621C42.7868 42.3488 42.5347 42.2872 42.3598 42.0249L38.9385 36.893L40.3144 35.5171L45.5668 40.113L43.5382 42.1416ZM46.0178 43.3026L46.071 42.0946L46.8525 41.3131L47.634 42.0946L47.6872 43.3026H46.0178ZM46.8526 38.9022L41.9756 34.6348V32.9527C43.3936 33.8545 45.0712 34.3707 46.8526 34.3707C48.634 34.3707 50.3118 33.8545 51.7297 32.9527V34.6348L46.8526 38.9022ZM51.3456 42.0249C51.1706 42.2873 50.9186 42.3488 50.784 42.3621C50.6491 42.3754 50.39 42.3645 50.1671 42.1415L48.1385 40.1129L53.3909 35.517L54.7668 36.8929L51.3456 42.0249Z" fill="#00338D"/>
<path d="M32.8735 42.5839L28.5819 40.7107L26.2359 38.3647C26.0787 38.2074 25.8767 38.1231 25.671 38.1099V36.7272C27.676 35.4097 29.1432 33.3143 29.6146 30.8173C29.8455 30.8276 30.0786 30.8055 30.3083 30.7512C31.4329 30.4851 32.2491 29.4073 32.2491 28.1886V27.5478C32.2491 26.6574 31.8073 25.8564 31.1228 25.3865C31.3242 24.5889 31.4268 23.7729 31.4268 22.9516C31.4268 19.3103 29.4585 16.1031 26.4917 14.2616C26.46 11.2226 23.8661 8.75928 20.6806 8.75928C17.495 8.75928 14.9011 11.2226 14.8695 14.2616C11.9027 16.1031 9.93443 19.3104 9.93443 22.9516C9.93443 23.7705 10.0364 24.5841 10.2365 25.3795C9.5524 25.847 9.11213 26.6518 9.11213 27.5574V28.1886C9.11213 29.4073 9.92834 30.4851 11.053 30.7512C11.2827 30.8056 11.5157 30.8276 11.7466 30.8173C12.2181 33.3143 13.6854 35.4097 15.6904 36.7272V38.1099C15.4847 38.1231 15.2827 38.2074 15.1255 38.3647L12.7795 40.7107L8.48798 42.5839C6.30442 43.5372 4.9052 45.7768 5.00609 48.1573L5.52512 60.4026C5.54516 60.8749 5.93434 61.2444 6.40262 61.2444C6.41516 61.2444 6.42782 61.2441 6.44047 61.2435C6.92552 61.223 7.30192 60.8132 7.28142 60.3282L6.76227 48.0828C6.72887 47.2937 6.93395 46.5281 7.3195 45.8692L9.62635 48.6374C10.3554 49.5122 10.7567 50.621 10.7567 51.7596V60.3655C10.7567 60.8508 11.1503 61.2444 11.6357 61.2444C12.121 61.2444 12.5146 60.8508 12.5146 60.3655V51.7596C12.5146 50.2107 11.9683 48.7022 10.9767 47.5122L8.52431 44.5692C8.73279 44.4256 8.95439 44.2983 9.19123 44.1949L12.9314 42.5623L15.5745 46.8524C15.8354 47.276 16.2669 47.5633 16.7584 47.6406C16.8468 47.6545 16.9354 47.6613 17.0236 47.6613C17.4254 47.6613 17.8168 47.519 18.1272 47.2541L19.802 45.825V60.3653C19.802 60.8507 20.1955 61.2443 20.6809 61.2443C21.1663 61.2443 21.5598 60.8507 21.5598 60.3653V45.8252L23.2346 47.2544C23.5449 47.5192 23.9363 47.6616 24.3381 47.6616C24.4262 47.6616 24.515 47.6547 24.6033 47.6408C25.0948 47.5635 25.5263 47.2763 25.7873 46.8526L28.4303 42.5624L32.1705 44.195C32.4072 44.2984 32.6289 44.4257 32.8374 44.5693L30.385 47.5123C29.3934 48.7022 28.8472 50.2108 28.8472 51.7598V60.3656C28.8472 60.851 29.2407 61.2445 29.7261 61.2445C30.2115 61.2445 30.605 60.851 30.605 60.3656V51.7598C30.605 50.6212 31.0065 49.5123 31.7354 48.6375L34.0422 45.8693C34.4278 46.5283 34.6329 47.2938 34.5995 48.0829L34.0804 60.3283C34.0599 60.8132 34.4363 61.223 34.9214 61.2437C34.934 61.2443 34.9466 61.2445 34.9592 61.2445C35.4275 61.2445 35.8167 60.8751 35.8367 60.4027L36.3557 48.1574C36.4565 45.777 35.0572 43.5372 32.8735 42.5839ZM20.6808 10.5171C22.5507 10.5171 24.1282 11.71 24.5948 13.3262C23.3814 12.8682 22.0612 12.6164 20.6808 12.6164C19.3004 12.6164 17.9802 12.8682 16.7668 13.3262C17.2334 11.71 18.8108 10.5171 20.6808 10.5171ZM13.4673 30.4551C13.3124 29.611 12.5297 28.9979 11.6876 29.0602C11.6129 29.0655 11.5358 29.0592 11.458 29.0406C11.1228 28.9613 10.8701 28.595 10.8701 28.1886V27.5574C10.8701 27.1497 11.1425 26.7824 11.4902 26.7214C11.7837 26.6698 12.0646 26.7776 12.2422 27.0093C12.4036 27.2198 12.6189 27.3702 12.8648 27.4445C13.2247 27.5533 13.6219 27.4894 13.9268 27.2739C14.4681 26.8919 14.9467 26.4262 15.3493 25.8899C15.6408 25.5018 15.5624 24.9508 15.1743 24.6595C14.786 24.368 14.2351 24.4464 13.9437 24.8345C13.7443 25.1 13.5199 25.3413 13.2731 25.5556C12.8971 25.234 12.4359 25.0327 11.9468 24.9716C11.7784 24.3097 11.6923 23.6327 11.6923 22.9517C11.6923 18.2222 15.7245 14.3743 20.6808 14.3743C25.637 14.3743 29.6692 18.2221 29.6692 22.9517C29.6692 23.6314 29.5836 24.307 29.4158 24.9678C29.1844 24.9862 28.9494 25.024 28.7317 25.0805L28.071 24.5372C27.739 24.2642 27.3211 24.1275 26.8982 24.1527C25.6063 24.229 18.9901 24.4038 15.5957 20.3413C15.2844 19.9689 14.7302 19.9192 14.3577 20.2305C13.9852 20.5417 13.9356 21.096 14.2468 21.4684C15.921 23.472 18.3764 24.8268 21.5448 25.4952C23.9707 26.007 26.1272 25.9573 26.9722 25.9091L28.0029 26.7568C28.2867 26.9901 28.6845 27.023 29.0022 26.8381C29.1513 26.7569 29.6505 26.6793 29.8683 26.7228C30.2238 26.7934 30.4917 27.1481 30.4917 27.5478V28.1886C30.4917 28.5951 30.2389 28.9614 29.9037 29.0406C29.826 29.059 29.7488 29.0657 29.6742 29.0601C28.8325 28.9989 28.0493 29.611 27.8943 30.455C27.2549 33.9361 24.2213 36.4626 20.6809 36.4626C17.1404 36.4626 14.1067 33.9361 13.4673 30.4551ZM17.0364 45.8742L14.3928 41.5833L15.7471 40.2291L19.3867 43.8687L17.0364 45.8742ZM20.6808 42.6768L17.4483 39.4442V37.626C18.4574 38.0101 19.5478 38.2204 20.6808 38.2204C21.8138 38.2204 22.9042 38.0101 23.9133 37.6261V39.4442L20.6808 42.6768ZM24.3252 45.8742L21.9749 43.8687L25.6145 40.2291L26.9688 41.5833L24.3252 45.8742Z" fill="#00338D"/>
<path d="M17.3877 51.2607H14.9209C14.4355 51.2607 14.042 51.6543 14.042 52.1397C14.042 52.625 14.4355 53.0186 14.9209 53.0186H17.3877C17.8731 53.0186 18.2666 52.625 18.2666 52.1397C18.2666 51.6543 17.8731 51.2607 17.3877 51.2607Z" fill="#00338D"/>
</svg>
