<svg width="63" height="63" viewBox="0 0 63 63" fill="none" xmlns="http://www.w3.org/2000/svg">
<path d="M61.6617 14.5402C59.479 14.7314 58.0665 15.5029 56.8206 16.1837C55.6339 16.8316 54.6089 17.3917 53.0268 17.3917C51.4167 17.3917 50.1815 16.821 48.7515 16.1615C48.2749 15.9413 47.7769 15.7221 47.2606 15.5116C47.2877 15.2461 47.3012 14.9767 47.3012 14.7073C47.3012 13.3341 46.9292 12.0151 46.254 10.8303L49.8269 7.26907C50.009 7.08753 50.1108 6.84227 50.1108 6.58638C50.1108 6.33049 50.009 6.08425 49.8269 5.90368L44.3435 0.438259C43.9647 0.0607007 43.3524 0.0607007 42.9736 0.438259L39.4133 3.98692C36.3403 2.24108 32.4593 2.72775 29.9045 5.27603L20.639 14.5112C18.0968 14.5962 16.29 15.417 14.6954 16.1538C13.2577 16.8181 12.0157 17.3917 10.3997 17.3917C8.81769 17.3917 7.79367 16.8316 6.60593 16.1837C5.36006 15.5029 3.94852 14.7314 1.76485 14.5402C1.22232 14.4958 0.762142 14.8859 0.714671 15.417C0.668168 15.9481 1.0615 16.4174 1.59434 16.4637C3.37305 16.6202 4.49008 17.2304 5.67298 17.8764C6.97504 18.5871 8.31973 19.3229 10.3978 19.3229C12.441 19.3229 13.9998 18.6026 15.5082 17.9064C16.3956 17.4969 17.3044 17.0837 18.3439 16.7969L15.5731 19.5585C13.6869 21.4386 13.6869 24.4987 15.5731 26.3797L23.7982 34.5778C24.7418 35.5184 25.9809 35.9886 27.22 35.9886C28.4591 35.9886 29.6982 35.5184 30.6418 34.5778L44.9703 20.2963C45.7957 19.4736 46.4225 18.4925 46.8178 17.4158C47.1986 17.5781 47.5706 17.7461 47.9339 17.9141C49.4345 18.6074 50.9865 19.3239 53.0239 19.3239C55.102 19.3239 56.4477 18.5881 57.7488 17.8774C58.9317 17.2314 60.0497 16.6202 61.8274 16.4647C62.3602 16.4183 62.7545 15.949 62.7071 15.418C62.6606 14.8878 62.1917 14.4977 61.6569 14.5412L61.6617 14.5402ZM43.6595 2.48731L47.773 6.58734L45.0352 9.31619L40.9217 5.21616L43.6595 2.48731ZM31.2754 6.64238C32.4418 5.47977 33.9716 4.88495 35.5129 4.88495C36.6987 4.88495 37.8903 5.23837 38.925 5.95776L44.2922 11.3063C44.9945 12.3125 45.3646 13.4877 45.3646 14.7092C45.3646 14.7633 45.3578 14.8164 45.3569 14.8695C44.3784 14.6204 43.4076 14.4958 42.372 14.4958C37.4844 14.4958 35.0682 17.3927 31.7152 17.3927C30.0993 17.3927 28.8573 16.8191 27.4196 16.1547C26.2115 15.5966 24.8804 14.9892 23.2034 14.6889L27.9079 9.99985L32.1347 14.2129C32.3236 14.4012 33.149 14.5682 33.5046 14.2129C33.8834 13.8353 33.8834 13.225 33.5046 12.8475L29.2777 8.63446L31.2754 6.64238ZM29.2758 33.2124C28.1801 34.3046 26.2686 34.3046 25.172 33.2124L16.9469 25.0143C15.8163 23.8865 15.8163 22.0518 16.9469 20.9239L21.4431 16.4425C23.5783 16.5207 25.1187 17.2208 26.6039 17.9073C28.1123 18.6035 29.6711 19.3239 31.7143 19.3239C33.4755 19.3239 34.8958 18.7793 36.1475 18.2134L40.2358 22.2884L34.7563 27.7499L27.5552 20.5724C27.1764 20.1949 26.5641 20.1949 26.1853 20.5724C25.8065 20.95 25.8065 21.5603 26.1853 21.9378L33.3864 29.1153L29.2758 33.2124ZM43.6043 18.9309L41.6057 20.923L38.0347 17.3637C39.266 16.848 40.6185 16.427 42.371 16.427C43.2807 16.427 44.1323 16.5361 44.9974 16.7669C44.6981 17.5742 44.2253 18.311 43.6043 18.9299V18.9309Z" fill="#00338D"/>
<path d="M12.8224 10.6334C14.6922 10.6334 16.2132 9.11741 16.2132 7.25376C16.2132 5.39011 14.6922 3.87408 12.8224 3.87408C10.9527 3.87408 9.43164 5.39011 9.43164 7.25376C9.43164 9.11741 10.9527 10.6334 12.8224 10.6334ZM12.8224 5.80533C13.6236 5.80533 14.2756 6.45519 14.2756 7.25376C14.2756 8.05233 13.6236 8.7022 12.8224 8.7022C12.0212 8.7022 11.3692 8.05233 11.3692 7.25376C11.3692 6.45519 12.0212 5.80533 12.8224 5.80533Z" fill="#00338D"/>
<path d="M53.5119 28.0145C55.3817 28.0145 56.9027 26.4985 56.9027 24.6348C56.9027 22.7712 55.3817 21.2551 53.5119 21.2551C51.6421 21.2551 50.1211 22.7712 50.1211 24.6348C50.1211 26.4985 51.6421 28.0145 53.5119 28.0145ZM53.5119 23.1864C54.3131 23.1864 54.9651 23.8362 54.9651 24.6348C54.9651 25.4334 54.3131 26.0832 53.5119 26.0832C52.7107 26.0832 52.0587 25.4334 52.0587 24.6348C52.0587 23.8362 52.7107 23.1864 53.5119 23.1864Z" fill="#00338D"/>
<path d="M28.7777 42.265C28.6809 41.8777 28.3553 41.59 27.9581 41.5407L20.6292 40.6273L16.0322 34.2126C15.9131 34.0465 15.7445 33.922 15.5498 33.8573L6.83059 30.9604C6.53511 30.8619 6.21056 30.9102 5.95771 31.0937C5.70485 31.2752 5.55469 31.5668 5.55469 31.8768V45.3955C5.55469 45.7615 5.76201 46.0956 6.09043 46.2588L15.9828 51.1883H29.7746C30.073 51.1883 30.3549 51.0512 30.538 50.8165C30.7211 50.5819 30.787 50.2767 30.7144 49.988L28.7768 42.263L28.7777 42.265ZM8.94451 45.522L13.5976 43.7829L14.7612 48.4208L8.94451 45.522ZM16.9681 49.258L15.2136 42.264C15.1468 41.9975 14.9685 41.7715 14.7244 41.6431C14.4802 41.5147 14.1915 41.4973 13.9338 41.5939L7.49228 44.0011V33.2151L14.6372 35.5886L19.298 42.0921C19.456 42.3123 19.6982 42.4552 19.9665 42.489L27.0581 43.3725L28.5336 49.2561H16.9681V49.258Z" fill="#00338D"/>
<path d="M55.5468 31.1045C55.3026 30.922 54.9868 30.8631 54.6933 30.95C54.4007 31.035 54.1653 31.2532 54.0577 31.5381L52.1889 36.5091C51.7907 37.5626 50.6369 38.1101 49.5693 37.7606C48.7109 37.4709 48.1355 36.6742 48.1355 35.7781C48.1355 35.5184 48.1781 35.2799 48.2672 35.0462L50.0595 30.2857C50.1573 30.0278 50.1389 29.7411 50.0101 29.4977C49.8822 29.2544 49.6555 29.0767 49.3871 29.0101L45.512 28.0445C45.0905 27.9431 44.6517 28.1265 44.4356 28.5022L40.7648 34.9033L33.4156 36.7341C33.1133 36.8094 32.8653 37.0257 32.75 37.3154C32.6347 37.6041 32.6667 37.9315 32.8352 38.1932L41.5544 51.7119C41.7336 51.99 42.0417 52.1551 42.3692 52.1551C42.3953 52.1551 42.4225 52.1551 42.4496 52.1522L54.0752 51.1866C54.4685 51.1537 54.8018 50.8872 54.9199 50.5126L59.7639 35.0626C59.886 34.6725 59.7484 34.2476 59.421 34.0023L55.5458 31.1055L55.5468 31.1045ZM53.5491 48.4123L49.8376 44.713C49.4588 44.3355 48.8466 44.3355 48.4678 44.713C48.089 45.0906 48.089 45.7009 48.4678 46.0784L51.8353 49.4349L42.871 50.1794L35.1972 38.281L41.6368 36.6762C41.8925 36.6124 42.1115 36.4473 42.2423 36.2185L45.7532 30.0945L47.8632 30.6198L46.4536 34.3635C46.2831 34.8106 46.1969 35.2866 46.1969 35.7772C46.1969 37.5018 47.3023 39.0342 48.9551 39.5914C51.0225 40.2692 53.2352 39.2128 54.0015 37.1879L55.4169 33.422L57.7101 35.136L53.5472 48.4114L53.5491 48.4123Z" fill="#00338D"/>
<path d="M21.543 3.87398C22.3456 3.87398 22.9962 3.22549 22.9962 2.42555C22.9962 1.6256 22.3456 0.977112 21.543 0.977112C20.7405 0.977112 20.0898 1.6256 20.0898 2.42555C20.0898 3.22549 20.7405 3.87398 21.543 3.87398Z" fill="#00338D"/>
<path d="M7.97859 28.0145C8.78116 28.0145 9.43178 27.3661 9.43178 26.5661C9.43178 25.7662 8.78116 25.1177 7.97859 25.1177C7.17601 25.1177 6.52539 25.7662 6.52539 26.5661C6.52539 27.3661 7.17601 28.0145 7.97859 28.0145Z" fill="#00338D"/>
<path d="M35.1055 51.1893C35.9081 51.1893 36.5587 50.5409 36.5587 49.7409C36.5587 48.941 35.9081 48.2925 35.1055 48.2925C34.303 48.2925 33.6523 48.941 33.6523 49.7409C33.6523 50.5409 34.303 51.1893 35.1055 51.1893Z" fill="#00338D"/>
</svg>
