<svg width="342" height="75" viewBox="0 0 342 75" fill="none" xmlns="http://www.w3.org/2000/svg">
<path d="M30.0685 55.2485C30.0179 55.2571 28.0997 55.0842 28.0997 55.0842C27.9388 55.0726 27.7896 54.9915 27.6943 54.8597C27.5918 54.7317 27.5517 54.5724 27.5796 54.4145C28.9198 46.0073 31.6526 40.6792 37.5211 35.6078C33.1477 37.9308 29.0151 41.8898 27.7773 47.5223C27.7247 47.7648 27.5431 47.954 27.2814 47.9776C27.0336 48.0067 26.7986 47.8805 26.6883 47.6604C23.7359 41.8223 24.3304 36.8358 28.5544 31.9737C30.9759 29.3096 34.2008 28.0329 37.0386 26.8998C40.3998 25.5663 43.306 24.4086 44.1793 21.4153C44.2472 21.1857 44.4528 21.0159 44.6943 20.9957C44.9383 20.975 45.1666 21.1076 45.271 21.3235C48.8575 28.7491 51.7045 36.0537 47.1357 43.8272C43.6057 48.9247 38.3899 50.9676 31.6045 49.9308C31.0851 51.5063 30.7464 53.0875 30.5654 54.7381C30.5373 55.0024 30.3326 55.2085 30.0793 55.2515L30.0685 55.2485Z" fill="url(#paint0_linear_757_13457)"/>
<circle cx="57.6908" cy="26.433" r="4.35825" stroke="#1E6FAE" stroke-width="1.5"/>
<circle cx="39.6495" cy="58.3918" r="4.35825" stroke="#1E6FAE" stroke-width="1.5"/>
<circle cx="57.6908" cy="47.567" r="4.35825" stroke="#1E6FAE" stroke-width="1.5"/>
<rect x="56.5" y="30" width="2.25" height="14" fill="#1E6FAE"/>
<rect x="54.3976" y="49.4348" width="2.25" height="13.3304" transform="rotate(60.0791 54.3976 49.4348)" fill="#1E6FAE"/>
<circle cx="17.6494" cy="47.3918" r="4.35825" transform="rotate(180 17.6494 47.3918)" stroke="#1E6FAE" stroke-width="1.5"/>
<circle cx="35.6907" cy="15.433" r="4.35825" transform="rotate(180 35.6907 15.433)" stroke="#1E6FAE" stroke-width="1.5"/>
<circle cx="17.6494" cy="26.2577" r="4.35825" transform="rotate(180 17.6494 26.2577)" stroke="#1E6FAE" stroke-width="1.5"/>
<rect x="18.8402" y="43.8247" width="2.25" height="14" transform="rotate(180 18.8402 43.8247)" fill="#1E6FAE"/>
<rect x="20.9426" y="24.3899" width="2.25" height="13.3304" transform="rotate(-119.921 20.9426 24.3899)" fill="#1E6FAE"/>
<path d="M87 32.6725C86.7734 32.4232 86.4447 32.1625 86.014 31.8905C85.5834 31.5959 85.0734 31.3239 84.484 31.0745C83.8947 30.8252 83.26 30.6212 82.58 30.4625C81.9 30.3039 81.1974 30.2245 80.472 30.2245C78.8854 30.2245 77.7067 30.5192 76.936 31.1085C76.1654 31.6979 75.78 32.5139 75.78 33.5565C75.78 34.3272 75.9954 34.9392 76.426 35.3925C76.8567 35.8232 77.514 36.1859 78.398 36.4805C79.282 36.7752 80.3927 37.0925 81.73 37.4325C83.362 37.8179 84.7787 38.2825 85.98 38.8265C87.1814 39.3479 88.0994 40.0505 88.734 40.9345C89.3687 41.8185 89.686 42.9859 89.686 44.4365C89.686 45.6605 89.4594 46.7145 89.006 47.5985C88.5527 48.4825 87.918 49.2079 87.102 49.7745C86.286 50.3185 85.3454 50.7265 84.28 50.9985C83.2147 51.2479 82.07 51.3725 80.846 51.3725C79.6447 51.3725 78.4434 51.2479 77.242 50.9985C76.0634 50.7492 74.93 50.3865 73.842 49.9105C72.7767 49.4119 71.7907 48.8112 70.884 48.1085L72.618 44.8445C72.9127 45.1392 73.332 45.4679 73.876 45.8305C74.4427 46.1705 75.0887 46.4992 75.814 46.8165C76.562 47.1339 77.3667 47.4059 78.228 47.6325C79.112 47.8365 80.0074 47.9385 80.914 47.9385C82.4327 47.9385 83.5887 47.6779 84.382 47.1565C85.198 46.6125 85.606 45.8419 85.606 44.8445C85.606 44.0285 85.3454 43.3825 84.824 42.9065C84.3027 42.4079 83.5434 41.9885 82.546 41.6485C81.5487 41.3085 80.3587 40.9685 78.976 40.6285C77.3894 40.1979 76.0634 39.7332 74.998 39.2345C73.9327 38.7132 73.128 38.0559 72.584 37.2625C72.0627 36.4465 71.802 35.4152 71.802 34.1685C71.802 32.5819 72.1874 31.2445 72.958 30.1565C73.7287 29.0459 74.7714 28.2185 76.086 27.6745C77.4234 27.1079 78.9194 26.8245 80.574 26.8245C81.662 26.8245 82.6934 26.9492 83.668 27.1985C84.6427 27.4252 85.5494 27.7425 86.388 28.1505C87.2494 28.5585 88.0314 29.0232 88.734 29.5445L87 32.6725Z" fill="url(#paint1_linear_757_13457)"/>
<path d="M120.663 51.1345H116.923V41.1725C116.923 39.5179 116.651 38.3052 116.107 37.5345C115.563 36.7639 114.769 36.3785 113.727 36.3785C112.684 36.3785 111.709 36.7752 110.803 37.5685C109.919 38.3392 109.295 39.3479 108.933 40.5945V51.1345H105.193V41.1725C105.193 39.5179 104.921 38.3052 104.377 37.5345C103.833 36.7639 103.051 36.3785 102.031 36.3785C100.988 36.3785 100.013 36.7639 99.1068 37.5345C98.2228 38.3052 97.5881 39.3139 97.2028 40.5605V51.1345H93.4628V33.3525H96.8628V36.9225C97.5655 35.6759 98.4834 34.7239 99.6168 34.0665C100.773 33.3865 102.087 33.0465 103.561 33.0465C105.034 33.0465 106.19 33.4319 107.029 34.2025C107.89 34.9732 108.423 35.9365 108.627 37.0925C109.397 35.7779 110.338 34.7805 111.449 34.1005C112.582 33.3979 113.874 33.0465 115.325 33.0465C116.367 33.0465 117.24 33.2392 117.943 33.6245C118.645 34.0099 119.189 34.5425 119.575 35.2225C119.96 35.8799 120.232 36.6505 120.391 37.5345C120.572 38.3959 120.663 39.3139 120.663 40.2885V51.1345Z" fill="url(#paint2_linear_757_13457)"/>
<path d="M124.181 45.9325C124.181 44.7992 124.498 43.8132 125.133 42.9745C125.79 42.1132 126.685 41.4559 127.819 41.0025C128.952 40.5265 130.267 40.2885 131.763 40.2885C132.556 40.2885 133.361 40.3452 134.177 40.4585C135.015 40.5719 135.752 40.7532 136.387 41.0025V39.8805C136.387 38.6339 136.013 37.6592 135.265 36.9565C134.517 36.2539 133.44 35.9025 132.035 35.9025C131.037 35.9025 130.097 36.0839 129.213 36.4465C128.329 36.7865 127.388 37.2739 126.391 37.9085L125.133 35.3925C126.311 34.5992 127.49 34.0099 128.669 33.6245C129.87 33.2392 131.128 33.0465 132.443 33.0465C134.823 33.0465 136.693 33.6812 138.053 34.9505C139.435 36.1972 140.127 37.9765 140.127 40.2885V46.9185C140.127 47.3492 140.195 47.6552 140.331 47.8365C140.489 48.0179 140.75 48.1199 141.113 48.1425V51.1345C140.773 51.2025 140.467 51.2479 140.195 51.2705C139.923 51.2932 139.696 51.3045 139.515 51.3045C138.721 51.3045 138.121 51.1119 137.713 50.7265C137.305 50.3412 137.067 49.8879 136.999 49.3665L136.897 48.3465C136.126 49.3439 135.14 50.1145 133.939 50.6585C132.737 51.2025 131.525 51.4745 130.301 51.4745C129.122 51.4745 128.068 51.2365 127.139 50.7605C126.209 50.2619 125.484 49.5932 124.963 48.7545C124.441 47.9159 124.181 46.9752 124.181 45.9325ZM135.503 47.0205C135.775 46.7259 135.99 46.4312 136.149 46.1365C136.307 45.8419 136.387 45.5812 136.387 45.3545V43.3145C135.752 43.0652 135.083 42.8839 134.381 42.7705C133.678 42.6345 132.987 42.5665 132.307 42.5665C130.947 42.5665 129.836 42.8385 128.975 43.3825C128.136 43.9265 127.717 44.6745 127.717 45.6265C127.717 46.1479 127.853 46.6465 128.125 47.1225C128.419 47.5985 128.827 47.9839 129.349 48.2785C129.893 48.5732 130.561 48.7205 131.355 48.7205C132.171 48.7205 132.953 48.5619 133.701 48.2445C134.449 47.9272 135.049 47.5192 135.503 47.0205Z" fill="url(#paint3_linear_757_13457)"/>
<path d="M155.16 36.5825C153.709 36.6052 152.417 36.9339 151.284 37.5685C150.173 38.2032 149.38 39.0985 148.904 40.2545V51.1345H145.164V33.3525H148.632V37.3305C149.244 36.1065 150.049 35.1319 151.046 34.4065C152.043 33.6585 153.097 33.2505 154.208 33.1825C154.435 33.1825 154.616 33.1825 154.752 33.1825C154.911 33.1825 155.047 33.1939 155.16 33.2165V36.5825Z" fill="url(#paint4_linear_757_13457)"/>
<path d="M168.275 50.2165C167.957 50.3752 167.561 50.5452 167.085 50.7265C166.609 50.9079 166.065 51.0665 165.453 51.2025C164.863 51.3385 164.251 51.4065 163.617 51.4065C162.846 51.4065 162.132 51.2705 161.475 50.9985C160.817 50.7265 160.285 50.2959 159.877 49.7065C159.491 49.0945 159.299 48.3125 159.299 47.3605V36.2425H156.953V33.3525H159.299V27.5045H163.039V33.3525H166.915V36.2425H163.039V46.1705C163.084 46.7825 163.277 47.2359 163.617 47.5305C163.979 47.8252 164.421 47.9725 164.943 47.9725C165.464 47.9725 165.963 47.8819 166.439 47.7005C166.915 47.5192 167.266 47.3719 167.493 47.2585L168.275 50.2165Z" fill="url(#paint5_linear_757_13457)"/>
<path d="M186.121 32.6725C185.894 32.4232 185.566 32.1625 185.135 31.8905C184.704 31.5959 184.194 31.3239 183.605 31.0745C183.016 30.8252 182.381 30.6212 181.701 30.4625C181.021 30.3039 180.318 30.2245 179.593 30.2245C178.006 30.2245 176.828 30.5192 176.057 31.1085C175.286 31.6979 174.901 32.5139 174.901 33.5565C174.901 34.3272 175.116 34.9392 175.547 35.3925C175.978 35.8232 176.635 36.1859 177.519 36.4805C178.403 36.7752 179.514 37.0925 180.851 37.4325C182.483 37.8179 183.9 38.2825 185.101 38.8265C186.302 39.3479 187.22 40.0505 187.855 40.9345C188.49 41.8185 188.807 42.9859 188.807 44.4365C188.807 45.6605 188.58 46.7145 188.127 47.5985C187.674 48.4825 187.039 49.2079 186.223 49.7745C185.407 50.3185 184.466 50.7265 183.401 50.9985C182.336 51.2479 181.191 51.3725 179.967 51.3725C178.766 51.3725 177.564 51.2479 176.363 50.9985C175.184 50.7492 174.051 50.3865 172.963 49.9105C171.898 49.4119 170.912 48.8112 170.005 48.1085L171.739 44.8445C172.034 45.1392 172.453 45.4679 172.997 45.8305C173.564 46.1705 174.21 46.4992 174.935 46.8165C175.683 47.1339 176.488 47.4059 177.349 47.6325C178.233 47.8365 179.128 47.9385 180.035 47.9385C181.554 47.9385 182.71 47.6779 183.503 47.1565C184.319 46.6125 184.727 45.8419 184.727 44.8445C184.727 44.0285 184.466 43.3825 183.945 42.9065C183.424 42.4079 182.664 41.9885 181.667 41.6485C180.67 41.3085 179.48 40.9685 178.097 40.6285C176.51 40.1979 175.184 39.7332 174.119 39.2345C173.054 38.7132 172.249 38.0559 171.705 37.2625C171.184 36.4465 170.923 35.4152 170.923 34.1685C170.923 32.5819 171.308 31.2445 172.079 30.1565C172.85 29.0459 173.892 28.2185 175.207 27.6745C176.544 27.1079 178.04 26.8245 179.695 26.8245C180.783 26.8245 181.814 26.9492 182.789 27.1985C183.764 27.4252 184.67 27.7425 185.509 28.1505C186.37 28.5585 187.152 29.0232 187.855 29.5445L186.121 32.6725Z" fill="url(#paint6_linear_757_13457)"/>
<path d="M192.447 44.2325V33.3525H196.187V43.4845C196.187 45.0712 196.47 46.2725 197.037 47.0885C197.626 47.8819 198.476 48.2785 199.587 48.2785C200.29 48.2785 200.97 48.1312 201.627 47.8365C202.307 47.5419 202.919 47.1112 203.463 46.5445C204.03 45.9552 204.483 45.2525 204.823 44.4365V33.3525H208.563V46.9185C208.563 47.3492 208.642 47.6552 208.801 47.8365C208.96 48.0179 209.22 48.1199 209.583 48.1425V51.1345C209.198 51.2025 208.88 51.2479 208.631 51.2705C208.382 51.2932 208.144 51.3045 207.917 51.3045C207.237 51.3045 206.67 51.1232 206.217 50.7605C205.764 50.3752 205.503 49.8879 205.435 49.2985L205.367 47.5305C204.574 48.8225 203.542 49.8085 202.273 50.4885C201.004 51.1459 199.61 51.4745 198.091 51.4745C196.232 51.4745 194.827 50.8625 193.875 49.6385C192.923 48.4145 192.447 46.6125 192.447 44.2325Z" fill="url(#paint7_linear_757_13457)"/>
<path d="M220.16 51.4745C218.664 51.4745 217.247 51.2365 215.91 50.7605C214.573 50.2619 213.428 49.5252 212.476 48.5505L213.87 46.0345C214.89 46.9412 215.91 47.5985 216.93 48.0065C217.972 48.4145 219.004 48.6185 220.024 48.6185C221.066 48.6185 221.917 48.4259 222.574 48.0405C223.231 47.6325 223.56 47.0432 223.56 46.2725C223.56 45.7059 223.39 45.2865 223.05 45.0145C222.71 44.7425 222.211 44.5045 221.554 44.3005C220.919 44.0965 220.148 43.8699 219.242 43.6205C217.973 43.2352 216.907 42.8385 216.046 42.4305C215.185 41.9999 214.538 41.4785 214.108 40.8665C213.677 40.2545 213.462 39.4725 213.462 38.5205C213.462 37.3645 213.756 36.3785 214.346 35.5625C214.935 34.7465 215.751 34.1232 216.794 33.6925C217.859 33.2619 219.083 33.0465 220.466 33.0465C221.758 33.0465 222.948 33.2505 224.036 33.6585C225.146 34.0439 226.121 34.6559 226.96 35.4945L225.362 37.9765C224.568 37.2512 223.753 36.7185 222.914 36.3785C222.098 36.0385 221.214 35.8685 220.262 35.8685C219.718 35.8685 219.197 35.9365 218.698 36.0725C218.199 36.1859 217.78 36.4125 217.44 36.7525C217.122 37.0699 216.964 37.5232 216.964 38.1125C216.964 38.5885 217.1 38.9739 217.372 39.2685C217.644 39.5632 218.052 39.8125 218.596 40.0165C219.14 40.2205 219.809 40.4472 220.602 40.6965C221.984 41.1045 223.163 41.5125 224.138 41.9205C225.113 42.3059 225.861 42.8159 226.382 43.4505C226.926 44.0625 227.198 44.9125 227.198 46.0005C227.198 47.7232 226.552 49.0719 225.26 50.0465C223.99 50.9985 222.29 51.4745 220.16 51.4745Z" fill="url(#paint8_linear_757_13457)"/>
<path d="M240.898 50.2165C240.58 50.3752 240.184 50.5452 239.708 50.7265C239.232 50.9079 238.688 51.0665 238.076 51.2025C237.486 51.3385 236.874 51.4065 236.24 51.4065C235.469 51.4065 234.755 51.2705 234.098 50.9985C233.44 50.7265 232.908 50.2959 232.5 49.7065C232.114 49.0945 231.922 48.3125 231.922 47.3605V36.2425H229.576V33.3525H231.922V27.5045H235.662V33.3525H239.538V36.2425H235.662V46.1705C235.707 46.7825 235.9 47.2359 236.24 47.5305C236.602 47.8252 237.044 47.9725 237.566 47.9725C238.087 47.9725 238.586 47.8819 239.062 47.7005C239.538 47.5192 239.889 47.3719 240.116 47.2585L240.898 50.2165Z" fill="url(#paint9_linear_757_13457)"/>
<path d="M242.696 45.9325C242.696 44.7992 243.014 43.8132 243.648 42.9745C244.306 42.1132 245.201 41.4559 246.334 41.0025C247.467 40.5265 248.782 40.2885 250.278 40.2885C251.072 40.2885 251.876 40.3452 252.692 40.4585C253.531 40.5719 254.268 40.7532 254.902 41.0025V39.8805C254.902 38.6339 254.528 37.6592 253.78 36.9565C253.032 36.2539 251.956 35.9025 250.55 35.9025C249.553 35.9025 248.612 36.0839 247.728 36.4465C246.844 36.7865 245.904 37.2739 244.906 37.9085L243.648 35.3925C244.827 34.5992 246.006 34.0099 247.184 33.6245C248.386 33.2392 249.644 33.0465 250.958 33.0465C253.338 33.0465 255.208 33.6812 256.568 34.9505C257.951 36.1972 258.642 37.9765 258.642 40.2885V46.9185C258.642 47.3492 258.71 47.6552 258.846 47.8365C259.005 48.0179 259.266 48.1199 259.628 48.1425V51.1345C259.288 51.2025 258.982 51.2479 258.71 51.2705C258.438 51.2932 258.212 51.3045 258.03 51.3045C257.237 51.3045 256.636 51.1119 256.228 50.7265C255.82 50.3412 255.582 49.8879 255.514 49.3665L255.412 48.3465C254.642 49.3439 253.656 50.1145 252.454 50.6585C251.253 51.2025 250.04 51.4745 248.816 51.4745C247.638 51.4745 246.584 51.2365 245.654 50.7605C244.725 50.2619 244 49.5932 243.478 48.7545C242.957 47.9159 242.696 46.9752 242.696 45.9325ZM254.018 47.0205C254.29 46.7259 254.506 46.4312 254.664 46.1365C254.823 45.8419 254.902 45.5812 254.902 45.3545V43.3145C254.268 43.0652 253.599 42.8839 252.896 42.7705C252.194 42.6345 251.502 42.5665 250.822 42.5665C249.462 42.5665 248.352 42.8385 247.49 43.3825C246.652 43.9265 246.232 44.6745 246.232 45.6265C246.232 46.1479 246.368 46.6465 246.64 47.1225C246.935 47.5985 247.343 47.9839 247.864 48.2785C248.408 48.5732 249.077 48.7205 249.87 48.7205C250.686 48.7205 251.468 48.5619 252.216 48.2445C252.964 47.9272 253.565 47.5192 254.018 47.0205Z" fill="url(#paint10_linear_757_13457)"/>
<path d="M263.68 51.1345V33.3525C265.745 33.3525 267.42 35.027 267.42 37.0925V51.1345H263.68Z" fill="url(#paint11_linear_757_13457)"/>
<path d="M288.36 51.1345H284.62V41.1725C284.62 39.5179 284.348 38.3052 283.804 37.5345C283.283 36.7639 282.501 36.3785 281.458 36.3785C280.733 36.3785 280.007 36.5599 279.282 36.9225C278.579 37.2852 277.945 37.7839 277.378 38.4185C276.811 39.0305 276.403 39.7445 276.154 40.5605V51.1345H272.414V33.3525H275.814V36.9225C276.267 36.1292 276.857 35.4492 277.582 34.8825C278.33 34.2932 279.169 33.8399 280.098 33.5225C281.027 33.2052 282.013 33.0465 283.056 33.0465C284.121 33.0465 284.994 33.2392 285.674 33.6245C286.377 34.0099 286.921 34.5425 287.306 35.2225C287.714 35.8799 287.986 36.6505 288.122 37.5345C288.281 38.3959 288.36 39.3139 288.36 40.2885V51.1345Z" fill="url(#paint12_linear_757_13457)"/>
<path d="M293.031 51.1345V46.7825H296.125V51.1345H293.031Z" fill="url(#paint13_linear_757_13457)"/>
<path d="M308.385 26.9945H311.989L321.373 51.1345H317.361L314.811 44.5725H305.495L302.979 51.1345H298.933L308.385 26.9945ZM314.063 41.7505L310.187 31.1765L306.175 41.7505H314.063Z" fill="url(#paint14_linear_757_13457)"/>
<path d="M324.859 51.1345V26.9945H328.667V51.1345H324.859Z" fill="url(#paint15_linear_757_13457)"/>
<path d="M273.246 23.1086C268.676 22.687 265.588 23.4954 264.044 25.489C262.436 27.5761 263.171 30.1596 263.207 30.2715L263.312 30.6576L263.477 30.286C264.571 27.7163 265.914 26.5769 266.891 26.0683C264.689 27.7259 263.852 30.7694 263.813 30.921L263.785 31.0433L263.887 31.0972C263.914 31.1069 264.205 31.2775 264.651 31.4384C265.354 31.6918 266.462 31.9255 267.529 31.4652C268.541 31.0346 269.315 30.0716 269.798 28.6063C271.367 23.955 273.259 23.4116 273.278 23.4016L274.196 23.1859L273.246 23.1086Z" fill="url(#paint16_linear_757_13457)"/>
<defs>
<linearGradient id="paint0_linear_757_13457" x1="34.6101" y1="22.7048" x2="39.8516" y2="53.5932" gradientUnits="userSpaceOnUse">
<stop stop-color="#036323"/>
<stop offset="1" stop-color="#06C948"/>
</linearGradient>
<linearGradient id="paint1_linear_757_13457" x1="332" y1="37.5089" x2="70" y2="37.5089" gradientUnits="userSpaceOnUse">
<stop stop-color="#0D304A"/>
<stop offset="1" stop-color="#1F71B0"/>
</linearGradient>
<linearGradient id="paint2_linear_757_13457" x1="332" y1="37.5089" x2="70" y2="37.5089" gradientUnits="userSpaceOnUse">
<stop stop-color="#0D304A"/>
<stop offset="1" stop-color="#1F71B0"/>
</linearGradient>
<linearGradient id="paint3_linear_757_13457" x1="332" y1="37.5089" x2="70" y2="37.5089" gradientUnits="userSpaceOnUse">
<stop stop-color="#0D304A"/>
<stop offset="1" stop-color="#1F71B0"/>
</linearGradient>
<linearGradient id="paint4_linear_757_13457" x1="332" y1="37.5089" x2="70" y2="37.5089" gradientUnits="userSpaceOnUse">
<stop stop-color="#0D304A"/>
<stop offset="1" stop-color="#1F71B0"/>
</linearGradient>
<linearGradient id="paint5_linear_757_13457" x1="332" y1="37.5089" x2="70" y2="37.5089" gradientUnits="userSpaceOnUse">
<stop stop-color="#0D304A"/>
<stop offset="1" stop-color="#1F71B0"/>
</linearGradient>
<linearGradient id="paint6_linear_757_13457" x1="332" y1="37.5089" x2="70" y2="37.5089" gradientUnits="userSpaceOnUse">
<stop stop-color="#0D304A"/>
<stop offset="1" stop-color="#1F71B0"/>
</linearGradient>
<linearGradient id="paint7_linear_757_13457" x1="332" y1="37.5089" x2="70" y2="37.5089" gradientUnits="userSpaceOnUse">
<stop stop-color="#0D304A"/>
<stop offset="1" stop-color="#1F71B0"/>
</linearGradient>
<linearGradient id="paint8_linear_757_13457" x1="332" y1="37.5089" x2="70" y2="37.5089" gradientUnits="userSpaceOnUse">
<stop stop-color="#0D304A"/>
<stop offset="1" stop-color="#1F71B0"/>
</linearGradient>
<linearGradient id="paint9_linear_757_13457" x1="332" y1="37.5089" x2="70" y2="37.5089" gradientUnits="userSpaceOnUse">
<stop stop-color="#0D304A"/>
<stop offset="1" stop-color="#1F71B0"/>
</linearGradient>
<linearGradient id="paint10_linear_757_13457" x1="332" y1="37.5089" x2="70" y2="37.5089" gradientUnits="userSpaceOnUse">
<stop stop-color="#0D304A"/>
<stop offset="1" stop-color="#1F71B0"/>
</linearGradient>
<linearGradient id="paint11_linear_757_13457" x1="332" y1="37.5089" x2="70" y2="37.5089" gradientUnits="userSpaceOnUse">
<stop stop-color="#0D304A"/>
<stop offset="1" stop-color="#1F71B0"/>
</linearGradient>
<linearGradient id="paint12_linear_757_13457" x1="332" y1="37.5089" x2="70" y2="37.5089" gradientUnits="userSpaceOnUse">
<stop stop-color="#0D304A"/>
<stop offset="1" stop-color="#1F71B0"/>
</linearGradient>
<linearGradient id="paint13_linear_757_13457" x1="332" y1="37.5089" x2="70" y2="37.5089" gradientUnits="userSpaceOnUse">
<stop stop-color="#0D304A"/>
<stop offset="1" stop-color="#1F71B0"/>
</linearGradient>
<linearGradient id="paint14_linear_757_13457" x1="332" y1="37.5089" x2="70" y2="37.5089" gradientUnits="userSpaceOnUse">
<stop stop-color="#0D304A"/>
<stop offset="1" stop-color="#1F71B0"/>
</linearGradient>
<linearGradient id="paint15_linear_757_13457" x1="332" y1="37.5089" x2="70" y2="37.5089" gradientUnits="userSpaceOnUse">
<stop stop-color="#0D304A"/>
<stop offset="1" stop-color="#1F71B0"/>
</linearGradient>
<linearGradient id="paint16_linear_757_13457" x1="269.963" y1="21.6602" x2="266.233" y2="32.0087" gradientUnits="userSpaceOnUse">
<stop stop-color="#036323"/>
<stop offset="1" stop-color="#06C948"/>
</linearGradient>
</defs>
</svg>
